<svg width="80" height="80" viewBox="0 0 80 80" fill="none" xmlns="http://www.w3.org/2000/svg">
<rect width="80" height="80" fill="#33282A"/>
<path d="M56.8892 21.325C56.2823 21.325 55.7191 21.5014 55.2407 21.8006C54.9598 21.9262 54.693 22.0942 54.4517 22.3073L40.5208 34.56C39.9252 35.085 39.0303 35.0794 38.439 34.5487L24.8059 22.2918C22.9513 20.6249 20 21.9403 20 24.4343V55.1104C20 56.8295 21.3903 58.4809 23.108 58.4809H23.1602C24.8793 58.4809 26.2244 56.8295 26.2244 55.1104V31.9389L37.1687 41.778C38.4573 42.9368 40.4107 42.9481 41.7121 41.802L53.7756 31.1909V48.6616L49.4989 44.7759C48.2272 43.6199 46.2583 43.7145 45.1023 44.9862C43.9464 46.2579 44.0409 48.2269 45.3126 49.3828L54.614 57.8317C56.6831 59.7117 60 58.2438 60 55.4477V24.4372C60 22.718 58.6069 21.325 56.8878 21.325H56.8892Z" fill="white" fill-opacity="0.4"/>
<path d="M40.869 40.9495C39.6876 42.2452 37.7709 42.3342 36.4752 41.1528L29.1767 34.5868C27.881 33.4054 27.7878 31.3984 28.9692 30.1027C30.1506 28.807 32.0729 28.8267 33.3686 30.0067L40.6051 36.5049C41.9007 37.6863 42.0504 39.6538 40.8704 40.9495" fill="white" fill-opacity="0.5"/>
<path d="M36.9437 41.5592C35.8046 40.2353 36.2408 38.272 37.6324 37.0765L54.4497 22.3171C55.8413 21.1202 57.9669 20.9833 59.106 22.3073L59.1822 22.4075C60.3212 23.7314 60.0573 25.7187 58.667 26.9156L41.6959 41.7991C40.3043 42.996 38.0827 42.8831 36.9451 41.5592" fill="white"/>
</svg>
